Coordinates
version=1
nRows=19
nColumns=36
inDegrees=yes

Units are S.I. units (second, meters, Newtons, ...)
If the header above contains a line with 'inDegrees', this indicates whether rotational values are in degrees (yes) or radians (no).

endheader
time	pelvis_tilt	pelvis_list	pelvis_rotation	pelvis_tx	pelvis_ty	pelvis_tz	hip_flexion_r	hip_adduction_r	hip_rotation_r	knee_angle_r	knee_angle_r_beta	ankle_angle_r	subtalar_angle_r	mtp_angle_r	hip_flexion_l	hip_adduction_l	hip_rotation_l	knee_angle_l	knee_angle_l_beta	ankle_angle_l	subtalar_angle_l	mtp_angle_l	lumbar_extension	lumbar_bending	lumbar_rotation	arm_flex_r	arm_add_r	arm_rot_r	elbow_flex_r	pro_sup_r	arm_flex_l	arm_add_l	arm_rot_l	elbow_flex_l	pro_sup_l
      1.86666670	     12.09434705	     -6.26572088	      1.63833092	      0.73947231	      0.92841583	     -0.20927815	     20.50623398	     -0.74456601	     -1.20574661	     25.48884408	      0.44486425	      2.15358019	     -1.10356751	     -7.49999987	     -4.41652157	     -1.43911950	     10.36328607	     21.82505858	      0.38091913	     20.78986875	      1.51109164	     -7.49999987	    -20.14856974	      4.36179831	      4.62412433	     60.91859762	     15.08375283	     49.12782165	    119.98098922	     95.90914127	     52.65848512	     19.47748971	     71.49378676	    149.24985094	     61.15805173
      1.88333330	     12.13800203	     -5.94639343	      1.59756918	      0.73949640	      0.92873622	     -0.20913834	     20.82832364	     -1.11537565	     -1.18739342	     25.62503937	      0.44724131	      2.13162936	     -0.93433387	     -7.49999987	     -4.04367229	     -0.95676353	     10.37884815	     22.39101181	      0.39079688	     20.96483555	      1.36675087	     -7.49999987	    -20.44649111	      4.18729019	      4.65860409	     61.26015117	     14.99061627	     49.02655503	    119.39258200	     95.62111351	     53.02221233	     19.62858262	     70.69514838	    149.22623644	     60.47227503
      1.90000000	     12.26689201	     -5.55019546	      1.63537658	      0.73348167	      0.93093901	     -0.20492244	     21.02474605	     -1.52324703	     -1.25585368	     25.46551001	      0.44445700	      1.68343507	     -0.81009002	     -7.49999987	     -3.62717689	     -0.44708467	     10.36377836	     23.00409682	      0.40149723	     20.99512534	      1.30181872	     -7.49999987	    -21.02798920	      3.61135421	      4.85392135	     61.54239167	     14.96031839	     48.97404536	    118.89788827	     95.60302691	     53.47506145	     19.65169256	     70.77876771	    149.26357840	     60.50097984
      1.91666670	     12.36016923	     -5.08760551	      1.67511564	      0.73321842	      0.92484923	     -0.20490008	     21.36225189	     -1.96401516	     -1.30422928	     25.50317793	      0.44511442	      1.15961463	     -0.76132284	     -7.49999987	     -3.07667032	      0.12256040	     10.32905356	     23.82000644	      0.41573754	     21.05899894	      1.08614499	     -7.49999987	    -21.60096658	      3.02494686	      5.09317962	     62.42666400	     15.09480966	     48.97255844	    118.45052431	     94.93940543	     54.24721884	     19.93493674	     70.36634428	    149.24505046	     60.60538848
      1.93333330	     12.51305250	     -4.69547826	      1.60877156	      0.73276533	      0.91855393	     -0.20451970	     21.80478275	     -2.30604534	     -1.15358693	     25.69576916	      0.44847578	      0.72409945	     -0.84918940	     -7.49999987	     -2.44421400	      0.62824118	     10.13959662	     24.95515512	      0.43554962	     21.42749992	      0.98786655	     -7.49999987	    -22.11054522	      2.54907147	      5.15444326	     63.19395911	     15.54173198	     48.62637888	    118.04277392	     93.54754556	     55.04593187	     20.25863353	     69.30358897	    149.22326734	     60.33995112
      1.95000000	     12.81273201	     -4.41741539	      1.69244797	      0.73761024	      0.91431903	     -0.20100762	     21.89400488	     -2.50664478	     -1.06902911	     26.01986725	      0.45413235	      0.59540638	     -0.88182517	     -7.49999987	     -2.14674674	      0.93516746	      9.98862780	     25.97404844	      0.45333267	     21.85164508	      0.66207324	     -7.49999987	    -22.34103660	      2.17962399	      5.25368346	     63.61888695	     15.89481705	     48.10746816	    117.83338834	     93.55378649	     54.98225039	     20.81606638	     68.68090525	    149.23349266	     60.26526035
      1.96666670	     12.97917635	     -4.08891861	      1.71930521	      0.73741936	      0.91438797	     -0.20070162	     22.18328595	     -2.78182194	     -0.84976789	     26.27292313	      0.45854901	      0.52523211	     -0.94408067	     -7.49999987	     -1.49666770	      1.35015515	      9.89079584	     27.34189563	      0.47720610	     22.12970686	      0.34928131	     -7.49999987	    -22.57621713	      1.90344246	      5.51494642	     63.27793888	     15.97905192	     48.92673599	    118.20901166	     87.41863972	     54.49762911	     20.54205152	     67.38205860	    149.21338804	     60.46972929
      1.98333330	     13.20290975	     -3.82340165	      1.62273280	      0.73699785	      0.91429062	     -0.20049842	     22.27024507	     -2.94269999	     -0.65333923	     26.17465572	      0.45683392	      0.24683744	     -0.98030322	     -7.49999987	     -0.92148494	      1.66039531	      9.60339160	     28.73019326	      0.50143647	     22.55423007	      0.29991064	     -7.49999987	    -23.02692427	      1.41152826	      5.98110211	     62.43016503	     15.60581365	     49.32054184	    118.97756899	     93.35662859	     53.83093463	     20.43567830	     67.94273305	    149.25088851	     59.84809018
      2.00000000	     13.40328227	     -3.46046316	      1.59467015	      0.73654984	      0.90774054	     -0.20021513	     22.52882232	     -3.23683846	     -0.42411181	     26.21296533	      0.45750255	     -0.01950058	     -0.78532288	     -7.49999987	     -0.03917982	      2.12162840	      9.33119105	     30.54076991	      0.53303699	     23.10789755	      0.24979843	     -7.49999987	    -23.60507171	      0.83045307	      6.40535346	     62.17886921	     15.46099398	     49.88925022	    119.15013666	     92.66860635	     53.62642950	     20.83618905	     67.74781799	    149.27151227	     60.14380654
      2.01666670	     13.73629141	     -3.08115496	      1.64386666	      0.73628119	      0.90789709	     -0.20019244	     22.40686383	     -3.56189546	     -0.33206865	     25.79802131	      0.45026041	     -0.42269717	     -0.34997346	     -7.49999987	      0.38032743	      2.55734736	      9.08434191	     31.84629792	      0.55582275	     23.55039350	      0.20475720	     -7.49999987	    -24.14776365	     -0.02163856	      6.83962687	     61.73394211	     14.96680643	     49.92911479	    119.81472850	     90.76231134	     53.19113636	     21.55466417	     68.73679839	    149.37743581	     60.55240256
      2.03333330	     14.08520202	     -2.71837995	      1.73552350	      0.73558941	      0.90021910	     -0.20005266	     22.33280163	     -3.89812871	     -0.17402189	     25.34270301	      0.44231361	     -0.93595067	     -0.08337336	     -7.49999987	      0.88956788	      2.98788831	      8.87305719	     33.29505224	      0.58110829	     24.02913575	      0.14654783	     -7.49999987	    -24.59293605	     -0.89424555	      7.17957733	     61.83285608	     14.27450496	     49.05830394	    120.52843356	     90.13567194	     53.69207995	     22.99647340	     68.43294714	    149.47014188	     60.64061699
      2.05000000	     14.53835947	     -2.30978720	      1.69060934	      0.73416172	      0.89737004	     -0.19973105	     22.34712743	     -4.28843434	      0.11340499	     25.04209044	      0.43706693	     -1.38722979	      0.16688889	     -7.49999987	      1.31250151	      3.47844039	      8.53647008	     34.71380348	      0.60587017	     24.47661876	      0.09450698	     -7.49999987	    -25.32034208	     -1.67127528	      7.39685762	     61.66906239	     13.81393827	     48.36868855	    121.05096410	     94.48063186	     53.90251444	     23.29352285	     68.94983096	    149.49989334	     61.15886902
      2.06666670	     14.95556633	     -1.98672657	      1.63094476	      0.73296028	      0.89113498	     -0.19958249	     22.48415120	     -4.66924251	      0.20972758	     24.87909717	      0.43422216	     -1.61861283	      0.57371426	     -7.49999987	      1.75302750	      3.89225064	      8.19573059	     36.16722593	      0.63123717	     25.03771387	     -0.11601157	     -7.49999987	    -26.10341794	     -2.09072680	      7.55203577	     62.03825583	     13.50962580	     48.51939594	    121.19928345	     93.03183633	     54.33011511	     23.09484677	     68.97829190	    149.47763056	     61.43441857
      2.08333330	     15.33248765	     -1.65296263	      1.56425562	      0.73113950	      0.88509667	     -0.19875421	     22.76613907	     -5.02741810	      0.43110957	     24.83522371	      0.43345642	     -2.07070319	      0.41787828	     -7.49999987	      2.34489545	      4.30416807	      7.83823722	     37.81112799	      0.65992868	     25.64331286	     -0.30862320	     -7.49999987	    -26.72613522	     -2.38884285	      7.44176038	     62.66579226	     13.92488399	     48.70501648	    121.47665383	     93.13492701	     55.06202565	     22.70308027	     68.37765012	    149.45405063	     61.39622649
      2.10000000	     15.82450339	     -0.99260769	      1.58016088	      0.72475552	      0.88528362	     -0.20235335	     22.85115546	     -5.81102783	      0.43753834	     24.47898023	      0.42723880	     -3.01124176	      0.41532065	     -7.49999987	      2.67177093	      5.12045600	      7.60573780	     39.04555008	      0.68147341	     25.91356624	     -0.55714830	     -7.49999987	    -27.75298625	     -2.82043439	      7.22778187	     63.69602808	     13.97944981	     49.52198514	    120.92596949	     93.24317756	     55.64589846	     22.46207745	     67.74817858	    149.41931462	     61.40124443
      2.11666670	     16.20826124	     -0.46032266	      1.50111707	      0.72380965	      0.87967633	     -0.20207888	     22.90965723	     -6.48347988	      0.37317245	     23.81221388	      0.41560153	     -3.74267330	      0.71644934	     -7.49999987	      3.05853797	      5.79078055	      7.31155945	     40.17684297	      0.70121819	     26.04619632	     -0.78951156	     -7.49999987	    -28.48143864	     -3.26786102	      7.40212182	     63.97414967	     13.89828857	     49.48335046	    120.70211935	     93.26568019	     55.80022673	     22.44137861	     67.57193777	    149.40714549	     61.40364247
      2.13333330	     16.71895376	      0.15803540	      1.50118532	      0.72270170	      0.87980715	     -0.20173177	     22.82078611	     -7.33123969	      0.02230700	     23.16051759	      0.40422729	     -5.02022488	      1.11897439	     -7.49999987	      3.24818006	      6.61674378	      7.26615493	     41.21945559	      0.71941522	     26.20057608	     -1.24256814	     -7.49999987	    -29.58762054	     -3.82312058	      7.49229738	     65.10019945	     13.69075043	     49.38173231	    120.39634546	     93.22124764	     56.39195832	     22.72546971	     67.16189329	    149.39287243	     61.40473419
      2.15000000	     17.58443175	      0.67889030	      1.67432014	      0.72123703	      0.87434450	     -0.20175943	     22.24792424	     -8.04667242	     -0.36229342	     22.45775213	      0.39196172	     -5.66775941	      1.61089990	     -7.49999987	      3.01683035	      7.24900752	      7.30049461	     42.22871952	      0.73703019	     26.16315628	     -1.67357396	     -7.49999987	    -31.25651998	     -4.12690158	      7.30748271	     65.94807290	     13.67196243	     49.91271267	    120.23729934	     91.96005241	     56.82799067	     22.66590849	     66.42064390	    149.36717249	     61.62802839
      2.16666670	     17.90904018	      1.25741137	      1.65061903	      0.72046548	      0.87158078	     -0.20163981	     22.32481038	     -8.71777494	     -0.37540904	     21.94937122	      0.38308880	     -6.41233297	      1.97314540	     -7.49999987	      3.36060397	      7.95040054	      7.17388657	     43.30285241	      0.75577735	     26.30908478	     -1.99364092	     -7.49999987	    -32.18376862	     -4.73895290	      7.40261551	     66.04994686	     13.15696102	     50.27549693	    120.65791930	     88.99435534	     56.80439602	     22.84281668	     66.73210660	    149.38384026	     61.75000898
